<?xml version="1.0" encoding="utf-8"?>
<svg width="326" height="338" viewBox="0 0 326 338" xmlns="http://www.w3.org/2000/svg">
<rect id="frame" x="0" y="0" width="326" height="338" fill="#f7f7f7" stroke="none" stroke-width="0"/>

<!-- Association créer -->
<g>
	<line x1="265" y1="68" x2="265" y2="194" stroke="#e08214" stroke-width="2"/>
	<text x="270" y="144" fill="#542788" font-family="Verdana" font-size="12">0,N</text>
	<line x1="162" y1="194" x2="265" y2="194" stroke="#e08214" stroke-width="2"/>
	<text x="215" y="211" fill="#542788" font-family="Verdana" font-size="12">1,1</text>
	<g>
		<path d="M274 169 a14 14 90 0 1 14 14 V194 h-46 V183 a14 14 90 0 1 14 -14" fill="#fdb863" stroke="#fdb863" stroke-width="0"/>
		<path d="M288 194 v11 a14 14 90 0 1 -14 14 H256 a14 14 90 0 1 -14 -14 V194 H46" fill="#fee0b6" stroke="#fee0b6" stroke-width="0"/>
		<rect x="242" y="169" width="46" height="50" fill="none" rx="14" stroke="#e08214" stroke-width="2"/>
		<line x1="242" y1="194" x2="288" y2="194" stroke="#e08214" stroke-width="1"/>
		<text x="249" y="186.75" fill="#000" font-family="Verdana" font-size="12">créer</text>
	</g>
</g>

<!-- Association appartenir -->
<g>
	<line x1="50" y1="295" x2="162" y2="295" stroke="#e08214" stroke-width="2"/>
	<text x="96" y="312" fill="#542788" font-family="Verdana" font-size="12">0,N</text>
	<line x1="162" y1="194" x2="162" y2="295" stroke="#e08214" stroke-width="2"/>
	<text x="167" y="253" fill="#542788" font-family="Verdana" font-size="12">0,N</text>
	<g>
		<path d="M187 270 a14 14 90 0 1 14 14 V295 h-78 V284 a14 14 90 0 1 14 -14" fill="#fdb863" stroke="#fdb863" stroke-width="0"/>
		<path d="M201 295 v11 a14 14 90 0 1 -14 14 H137 a14 14 90 0 1 -14 -14 V295 H78" fill="#fee0b6" stroke="#fee0b6" stroke-width="0"/>
		<rect x="123" y="270" width="78" height="50" fill="none" rx="14" stroke="#e08214" stroke-width="2"/>
		<line x1="123" y1="295" x2="201" y2="295" stroke="#e08214" stroke-width="1"/>
		<text x="131" y="287.75" fill="#000" font-family="Verdana" font-size="12">appartenir</text>
	</g>
</g>

<!-- Entity utilisateur -->
<g>
	<g>
		<rect x="213" y="9" width="104" height="25" fill="#b2abd2" stroke="#b2abd2" stroke-width="0" opacity="1"/>
		<rect x="213" y="34" width="104" height="93" fill="#d8daeb" stroke="#d8daeb" stroke-width="0" opacity="1"/>
		<rect x="213" y="9" width="104" height="118" fill="none" stroke="#8073ac" stroke-width="2" opacity="1"/>
		<line x1="213" y1="34" x2="317" y2="34" stroke="#8073ac" stroke-width="1"/>
	</g>
	<text x="235" y="26.75" fill="#000" font-family="Verdana" font-size="12">utilisateur</text>
	<text x="218" y="51.8" fill="#000" font-family="Verdana" font-size="12">code utilisateur</text>
	<line x1="218" y1="54" x2="312" y2="54" stroke="#000" stroke-width="1"/>
	<text x="218" y="68.8" fill="#000" font-family="Verdana" font-size="12">prénom</text>
	<text x="218" y="85.8" fill="#000" font-family="Verdana" font-size="12">nom</text>
	<text x="218" y="102.8" fill="#000" font-family="Verdana" font-size="12">email</text>
	<text x="218" y="119.8" fill="#000" font-family="Verdana" font-size="12">mot de passe</text>
</g>

<!-- Entity question -->
<g>
	<g>
		<rect x="114" y="152" width="96" height="25" fill="#b2abd2" stroke="#b2abd2" stroke-width="0" opacity="1"/>
		<rect x="114" y="177" width="96" height="59" fill="#d8daeb" stroke="#d8daeb" stroke-width="0" opacity="1"/>
		<rect x="114" y="152" width="96" height="84" fill="none" stroke="#8073ac" stroke-width="2" opacity="1"/>
		<line x1="114" y1="177" x2="210" y2="177" stroke="#8073ac" stroke-width="1"/>
	</g>
	<text x="136" y="169.75" fill="#000" font-family="Verdana" font-size="12">question</text>
	<text x="119" y="194.8" fill="#000" font-family="Verdana" font-size="12">code question</text>
	<line x1="119" y1="197" x2="204" y2="197" stroke="#000" stroke-width="1"/>
	<text x="119" y="211.8" fill="#000" font-family="Verdana" font-size="12">titre</text>
	<text x="119" y="228.8" fill="#000" font-family="Verdana" font-size="12">description</text>
</g>

<!-- Entity catégorie -->
<g>
	<g>
		<rect x="9" y="261" width="82" height="25" fill="#b2abd2" stroke="#b2abd2" stroke-width="0" opacity="1"/>
		<rect x="9" y="286" width="82" height="43" fill="#d8daeb" stroke="#d8daeb" stroke-width="0" opacity="1"/>
		<rect x="9" y="261" width="82" height="68" fill="none" stroke="#8073ac" stroke-width="2" opacity="1"/>
		<line x1="9" y1="286" x2="91" y2="286" stroke="#8073ac" stroke-width="1"/>
	</g>
	<text x="22" y="278.75" fill="#000" font-family="Verdana" font-size="12">catégorie</text>
	<text x="14" y="303.8" fill="#000" font-family="Verdana" font-size="12">code thème</text>
	<line x1="14" y1="306" x2="86" y2="306" stroke="#000" stroke-width="1"/>
	<text x="14" y="320.8" fill="#000" font-family="Verdana" font-size="12">nom</text>
</g>
</svg>